<svg xmlns="http://www.w3.org/2000/svg" version="1.1" xmlns:xlink="http://www.w3.org/1999/xlink" xmlns:svgjs="http://svgjs.dev/svgjs" width="1000" height="1125" viewBox="0 0 1000 1125"><g transform="matrix(1,0,0,1,0,0)"><svg viewBox="0 0 320 360" data-background-color="#ffffff" preserveAspectRatio="xMidYMid meet" height="1125" width="1000" xmlns="http://www.w3.org/2000/svg" xmlns:xlink="http://www.w3.org/1999/xlink"><g id="tight-bounds" transform="matrix(1,0,0,1,0,0)"><svg viewBox="0 0 320 360" height="360" width="320"><g><svg></svg></g><g><svg viewBox="0 0 320 360" height="360" width="320"><g><path xmlns="http://www.w3.org/2000/svg" d="M297.491 100.645c-12.426-21.51-112.674-79.355-137.491-79.355-24.817 0-125.028 57.845-137.491 79.355-11.591 20.02-11.591 138.726 0 158.746 12.463 21.474 112.674 79.319 137.491 79.319 24.817 0 125.064-57.845 137.491-79.355 11.591-20.02 11.591-138.69 0-158.71zM309.481 93.705c-14.461-24.998-119.469-86.295-149.481-86.295-30.012 0-135.02 61.297-149.481 86.295-14.025 24.199-14.025 148.391 0 172.59 14.461 24.998 119.469 86.295 149.481 86.295 30.012 0 135.02-61.297 149.481-86.259 14.025-24.235 14.025-148.427 0-172.626zM300.906 261.353c-12.753 22.055-115.472 81.317-140.906 81.318-25.434 0-128.153-59.298-140.906-81.354-11.881-20.529-11.881-142.178 0-162.707 12.753-22.019 115.472-81.281 140.906-81.281 25.434 0 128.153 59.298 140.906 81.318 11.881 20.529 11.881 142.178 0 162.706z" fill="#0076ff" fill-rule="nonzero" stroke="none" stroke-width="1" stroke-linecap="butt" stroke-linejoin="miter" stroke-miterlimit="10" stroke-dasharray="" stroke-dashoffset="0" font-family="none" font-weight="none" font-size="none" text-anchor="none" style="mix-blend-mode: normal" data-fill-palette-color="tertiary"></path></g><g transform="matrix(1,0,0,1,99.64980544747081,90)"><svg viewBox="0 0 120.70038910505836 180" height="180" width="120.70038910505836"><g><svg viewBox="0 0 120.70038910505836 180" height="180" width="120.70038910505836"><g><svg viewBox="0 0 120.70038910505836 180" height="180" width="120.70038910505836"><g><svg viewBox="0 0 120.70038910505836 180" height="180" width="120.70038910505836"><g><svg viewBox="0 0 120.70038910505836 180" height="180" width="120.70038910505836"><g><svg viewBox="0 0 120.70038910505836 180" height="180" width="120.70038910505836"><g transform="matrix(1,0,0,1,0,0)"><svg width="120.70038910505836" viewBox="1.350000023841858 -37.5 25.850000381469727 38.54999923706055" height="180" data-palette-color="#ffffff"><path d="M7.6-28.55L7.6-28.55Q7.6-32.4 10.93-34.95 14.25-37.5 19.15-37.5L19.15-37.5Q22.95-37.5 25.08-35.95 27.2-34.4 27.2-31.5L27.2-31.5Q27.2-29.25 26.08-27.85 24.95-26.45 23.1-26.45L23.1-26.45Q22.4-26.45 21.83-26.7 21.25-26.95 20.8-27.5L20.8-27.5Q21.8-28.1 22.43-29.3 23.05-30.5 23.05-31.8L23.05-31.8Q23.05-33.4 22.1-34.27 21.15-35.15 19.35-35.15L19.35-35.15Q17.2-35.15 15.98-33.95 14.75-32.75 14.75-30.6L14.75-30.6Q14.75-28.85 15.65-27.28 16.55-25.7 19.55-23.05L19.55-23.05Q23.5-19.6 24.75-17.07 26-14.55 26-11.45L26-11.45Q26-5.75 22.05-2.35 18.1 1.05 11.95 1.05L11.95 1.05Q7.05 1.05 4.2-1.2 1.35-3.45 1.35-7.55L1.35-7.55Q1.35-11.15 3.5-13.45 5.65-15.75 8.7-15.75L8.7-15.75Q10.6-15.75 11.8-14.88 13-14 13.1-12.45L13.1-12.45Q10.5-12.45 8.88-11.2 7.25-9.95 7.25-7.75L7.25-7.75Q7.25-5.65 8.55-4.3 9.85-2.95 12.05-2.95L12.05-2.95Q14.65-2.95 16.25-4.75 17.85-6.55 17.85-9.6L17.85-9.6Q17.85-11.95 16.8-14.1 15.75-16.25 12.45-19.85L12.45-19.85Q9.45-23.05 8.53-24.88 7.6-26.7 7.6-28.55Z" opacity="1" transform="matrix(1,0,0,1,0,0)" fill="#ffffff" class="undefined-text-0" data-fill-palette-color="quaternary" id="text-0"></path></svg></g></svg></g></svg></g></svg></g><g></g></svg></g></svg></g></svg></g></svg></g><defs></defs></svg><rect width="320" height="360" fill="none" stroke="none" visibility="hidden"></rect></g></svg></g></svg>